ffmpeg version 4.4.2-0ubuntu0.22.04.1 Copyright (c) 2000-2021 the FFmpeg developers
  built with gcc 11 (Ubuntu 11.2.0-19ubuntu1)
  configuration: --prefix=/usr --extra-version=0ubuntu0.22.04.1 --toolchain=hardened --libdir=/usr/lib/x86_64-linux-gnu --incdir=/usr/include/x86_64-linux-gnu --arch=amd64 --enable-gpl --disable-stripping --enable-gnutls --enable-ladspa --enable-libaom --enable-libass --enable-libbluray --enable-libbs2b --enable-libcaca --enable-libcdio --enable-libcodec2 --enable-libdav1d --enable-libflite --enable-libfontconfig --enable-libfreetype --enable-libfribidi --enable-libgme --enable-libgsm --enable-libjack --enable-libmp3lame --enable-libmysofa --enable-libopenjpeg --enable-libopenmpt --enable-libopus --enable-libpulse --enable-librabbitmq --enable-librubberband --enable-libshine --enable-libsnappy --enable-libsoxr --enable-libspeex --enable-libsrt --enable-libssh --enable-libtheora --enable-libtwolame --enable-libvidstab --enable-libvorbis --enable-libvpx --enable-libwebp --enable-libx265 --enable-libxml2 --enable-libxvid --enable-libzimg --enable-libzmq --enable-libzvbi --enable-lv2 --enable-omx --enable-openal --enable-opencl --enable-opengl --enable-sdl2 --enable-pocketsphinx --enable-librsvg --enable-libmfx --enable-libdc1394 --enable-libdrm --enable-libiec61883 --enable-chromaprint --enable-frei0r --enable-libx264 --enable-shared
  libavutil      56. 70.100 / 56. 70.100
  libavcodec     58.134.100 / 58.134.100
  libavformat    58. 76.100 / 58. 76.100
  libavdevice    58. 13.100 / 58. 13.100
  libavfilter     7.110.100 /  7.110.100
  libswscale      5.  9.100 /  5.  9.100
  libswresample   3.  9.100 /  3.  9.100
  libpostproc    55.  9.100 / 55.  9.100
[image2pipe @ 0x5555fa8e59c0] Stream #0: not enough frames to estimate rate; consider increasing probesize
Input #0, image2pipe, from 'pipe:':
  Duration: N/A, bitrate: N/A
  Stream #0:0: Video: bmp, bgr24, 1280x720, 25 fps, 25 tbr, 25 tbn, 25 tbc
Input #1, lavfi, from 'anullsrc':
  Duration: N/A, start: 0.000000, bitrate: 705 kb/s
  Stream #1:0: Audio: pcm_u8, 44100 Hz, stereo, u8, 705 kb/s
Stream mapping:
  Stream #0:0 -> #0:0 (bmp (native) -> h264 (libx264))
  Stream #1:0 -> #0:1 (pcm_u8 (native) -> aac (native))
[libx264 @ 0x5555fa8f1e80] using cpu capabilities: MMX2 SSE2Fast SSSE3 SSE4.2 AVX FMA3 BMI2 AVX2
[libx264 @ 0x5555fa8f1e80] profile High, level 3.1, 4:2:0, 8-bit
[libx264 @ 0x5555fa8f1e80] 264 - core 163 r3060 5db6aa6 - H.264/MPEG-4 AVC codec - Copyleft 2003-2021 - http://www.videolan.org/x264.html - options: cabac=1 ref=3 deblock=1:0:0 analyse=0x3:0x113 me=hex subme=7 psy=1 psy_rd=1.00:0.00 mixed_ref=1 me_range=16 chroma_me=1 trellis=1 8x8dct=1 cqm=0 deadzone=21,11 fast_pskip=1 chroma_qp_offset=-2 threads=12 lookahead_threads=2 sliced_threads=0 nr=0 decimate=1 interlaced=0 bluray_compat=0 constrained_intra=0 bframes=3 b_pyramid=2 b_adapt=1 b_bias=0 direct=1 weightb=1 open_gop=0 weightp=2 keyint=50 keyint_min=5 scenecut=40 intra_refresh=0 rc_lookahead=40 rc=abr mbtree=1 bitrate=2000 ratetol=1.0 qcomp=0.60 qpmin=0 qpmax=69 qpstep=4 vbv_maxrate=4500 vbv_bufsize=4000 nal_hrd=none filler=0 ip_ratio=1.40 aq=1:1.00
Output #0, flv, to 'rtmp://b.rtmp.youtube.com/live2?backup=1/rmu6-z8dm-sp75-y0fc-as0t':
  Metadata:
    encoder         : Lavf58.76.100
  Stream #0:0: Video: h264 ([7][0][0][0] / 0x0007), yuv420p(tv, progressive), 1280x720, q=2-31, 2000 kb/s, 25 fps, 1k tbn
    Metadata:
      encoder         : Lavc58.134.100 libx264
    Side data:
      cpb: bitrate max/min/avg: 4500000/0/2000000 buffer size: 4000000 vbv_delay: N/A
  Stream #0:1: Audio: aac (LC) ([10][0][0][0] / 0x000A), 44100 Hz, stereo, fltp, 128 kb/s
    Metadata:
      encoder         : Lavc58.134.100 aac
frame=    1 fps=0.0 q=0.0 size=       0kB time=00:00:00.00 bitrate=N/A speed=   0x    frame=   10 fps=0.0 q=0.0 size=       0kB time=00:00:00.00 bitrate=N/A speed=   0x    frame=   18 fps= 17 q=0.0 size=       0kB time=00:00:00.00 bitrate=N/A speed=   0x    frame=   27 fps= 17 q=0.0 size=       0kB time=00:00:00.00 bitrate=N/A speed=   0x    frame=   34 fps= 17 q=0.0 size=       0kB time=00:00:00.00 bitrate=N/A speed=   0x    frame=   42 fps= 16 q=0.0 size=       0kB time=00:00:00.00 bitrate=N/A speed=   0x    frame=   50 fps= 16 q=0.0 size=       0kB time=00:00:00.00 bitrate=N/A speed=   0x    frame=   57 fps= 16 q=27.0 size=       1kB time=-00:00:00.02 bitrate=N/A speed=N/A    frame=   66 fps= 16 q=13.0 size=       2kB time=00:00:00.30 bitrate=  60.4kbits/s speed=0.074x    frame=   73 fps= 16 q=3.0 size=       3kB time=00:00:00.58 bitrate=  41.0kbits/s speed=0.126x    frame=   81 fps= 16 q=0.0 size=       4kB time=00:00:00.88 bitrate=  34.0kbits/s speed=0.173x    frame=   90 fps= 16 q=0.0 size=       5kB time=00:00:01.25 bitrate=  29.8kbits/s speed=0.224x    frame=   99 fps= 16 q=0.0 size=       5kB time=00:00:01.60 bitrate=  27.5kbits/s speed=0.262x    frame=  106 fps= 16 q=0.0 size=       6kB time=00:00:01.88 bitrate=  26.7kbits/s speed=0.284x    frame=  114 fps= 16 q=0.0 size=       7kB time=00:00:02.20 bitrate=  26.3kbits/s speed=0.31x    frame=  122 fps= 16 q=0.0 size=       8kB time=00:00:02.53 bitrate=  25.5kbits/s speed=0.332x    frame=  131 fps= 16 q=0.0 size=       9kB time=00:00:02.90 bitrate=  24.9kbits/s speed=0.357x    frame=  140 fps= 16 q=0.0 size=      10kB time=00:00:03.24 bitrate=  24.3kbits/s speed=0.376x    frame=  148 fps= 16 q=0.0 size=      10kB time=00:00:03.57 bitrate=  24.0kbits/s speed=0.391x    frame=  156 fps= 16 q=0.0 size=      11kB time=00:00:03.88 bitrate=  23.8kbits/s speed=0.403x    frame=  164 fps= 16 q=0.0 size=      12kB time=00:00:04.20 bitrate=  24.1kbits/s speed=0.414x    frame=  174 fps= 16 q=0.0 size=      13kB time=00:00:04.62 bitrate=  23.7kbits/s speed=0.434x    frame=  182 fps= 16 q=0.0 size=      14kB time=00:00:04.92 bitrate=  23.5kbits/s speed=0.441x    frame=  190 fps= 16 q=0.0 size=      15kB time=00:00:05.24 bitrate=  23.4kbits/s speed=0.45x    frame=  198 fps= 16 q=0.0 size=      16kB time=00:00:05.57 bitrate=  23.2kbits/s speed=0.458x    frame=  207 fps= 16 q=0.0 size=      17kB time=00:00:05.92 bitrate=  23.4kbits/s speed=0.467x    frame=  215 fps= 16 q=0.0 size=      18kB time=00:00:06.24 bitrate=  23.1kbits/s speed=0.474x    frame=  224 fps= 16 q=0.0 size=      19kB time=00:00:06.61 bitrate=  23.0kbits/s speed=0.484x    frame=  233 fps= 16 q=0.0 size=      19kB time=00:00:06.96 bitrate=  22.8kbits/s speed=0.491x    frame=  242 fps= 16 q=0.0 size=      20kB time=00:00:07.33 bitrate=  22.7kbits/s speed= 0.5x    frame=  251 fps= 17 q=0.0 size=      21kB time=00:00:07.68 bitrate=  22.6kbits/s speed=0.506x    frame=  260 fps= 17 q=0.0 size=      22kB time=00:00:08.05 bitrate=  22.7kbits/s speed=0.513x    frame=  267 fps= 16 q=0.0 size=      23kB time=00:00:08.33 bitrate=  22.7kbits/s speed=0.515x    frame=  275 fps= 16 q=0.0 size=      24kB time=00:00:08.64 bitrate=  22.5kbits/s speed=0.517x    frame=  283 fps= 16 q=0.0 size=      25kB time=00:00:08.96 bitrate=  22.5kbits/s speed=0.521x    frame=  292 fps= 16 q=0.0 size=      26kB time=00:00:09.33 bitrate=  22.4kbits/s speed=0.527x    frame=  302 fps= 17 q=0.0 size=      26kB time=00:00:09.72 bitrate=  22.3kbits/s speed=0.534x    frame=  311 fps= 17 q=0.0 size=      28kB time=00:00:10.08 bitrate=  22.4kbits/s speed=0.538x    frame=  318 fps= 17 q=0.0 size=      28kB time=00:00:10.37 bitrate=  22.4kbits/s speed=0.54x    frame=  326 fps= 17 q=0.0 size=      29kB time=00:00:10.68 bitrate=  22.3kbits/s speed=0.541x    frame=  335 fps= 17 q=0.0 size=      30kB time=00:00:11.04 bitrate=  22.2kbits/s speed=0.546x    frame=  342 fps= 16 q=0.0 size=      31kB time=00:00:11.33 bitrate=  22.2kbits/s speed=0.546x    frame=  352 fps= 17 q=0.0 size=      32kB time=00:00:11.72 bitrate=  22.1kbits/s speed=0.552x    frame=  360 fps= 17 q=0.0 size=      33kB time=00:00:12.05 bitrate=  22.2kbits/s speed=0.554x    frame=  369 fps= 17 q=0.0 size=      34kB time=00:00:12.42 bitrate=  22.2kbits/s speed=0.558x    frame=  377 fps= 17 q=0.0 size=      34kB time=00:00:12.72 bitrate=  22.1kbits/s speed=0.559x    frame=  386 fps= 17 q=0.0 size=      35kB time=00:00:13.08 bitrate=  22.0kbits/s speed=0.563x    frame=  394 fps= 17 q=0.0 size=      36kB time=00:00:13.42 bitrate=  22.0kbits/s speed=0.565x    frame=  403 fps= 17 q=0.0 size=      37kB time=00:00:13.76 bitrate=  22.0kbits/s speed=0.567x    frame=  412 fps= 17 q=0.0 size=      38kB time=00:00:14.14 bitrate=  22.1kbits/s speed=0.571x    frame=  419 fps= 17 q=0.0 size=      39kB time=00:00:14.42 bitrate=  22.0kbits/s speed=0.571x    frame=  429 fps= 17 q=0.0 size=      40kB time=00:00:14.80 bitrate=  22.0kbits/s speed=0.574x    frame=  438 fps= 17 q=0.0 size=      41kB time=00:00:15.16 bitrate=  21.9kbits/s speed=0.577x    frame=  446 fps= 17 q=0.0 size=      41kB time=00:00:15.48 bitrate=  21.9kbits/s speed=0.578x    frame=  455 fps= 17 q=0.0 size=      42kB time=00:00:15.84 bitrate=  21.8kbits/s speed=0.581x    frame=  463 fps= 17 q=0.0 size=      43kB time=00:00:16.16 bitrate=  22.0kbits/s speed=0.582x    frame=  473 fps= 17 q=0.0 size=      44kB time=00:00:16.56 bitrate=  21.9kbits/s speed=0.585x    frame=  482 fps= 17 q=0.0 size=      45kB time=00:00:16.92 bitrate=  21.9kbits/s speed=0.588x    frame=  491 fps= 17 q=0.0 size=      46kB time=00:00:17.29 bitrate=  21.8kbits/s speed=0.59x    frame=  499 fps= 17 q=0.0 size=      47kB time=00:00:17.60 bitrate=  21.8kbits/s speed=0.59x    frame=  509 fps= 17 q=0.0 size=      48kB time=00:00:18.01 bitrate=  21.9kbits/s speed=0.594x    frame=  517 fps= 17 q=0.0 size=      49kB time=00:00:18.32 bitrate=  21.9kbits/s speed=0.595x    [flv @ 0x5555fa8f0f80] Failed to update header with correct duration.
[flv @ 0x5555fa8f0f80] Failed to update header with correct filesize.
frame=  520 fps= 17 q=-1.0 Lsize=      53kB time=00:00:20.68 bitrate=  20.9kbits/s speed=0.664x    
video:24kB audio:5kB subtitle:0kB other streams:0kB global headers:0kB muxing overhead: 82.117867%
[libx264 @ 0x5555fa8f1e80] frame I:11    Avg QP: 0.73  size:   293
[libx264 @ 0x5555fa8f1e80] frame P:135   Avg QP: 0.17  size:    48
[libx264 @ 0x5555fa8f1e80] frame B:374   Avg QP: 0.36  size:    39
[libx264 @ 0x5555fa8f1e80] consecutive B-frames:  4.0%  0.0%  0.6% 95.4%
[libx264 @ 0x5555fa8f1e80] mb I  I16..4: 99.9%  0.0%  0.1%
[libx264 @ 0x5555fa8f1e80] mb P  I16..4:  0.0%  0.0%  0.0%  P16..4:  0.0%  0.0%  0.0%  0.0%  0.0%    skip:100.0%
[libx264 @ 0x5555fa8f1e80] mb B  I16..4:  0.0%  0.0%  0.0%  B16..8:  0.0%  0.0%  0.0%  direct: 0.0%  skip:100.0%  L0:66.7% L1:33.3% BI: 0.0%
[libx264 @ 0x5555fa8f1e80] final ratefactor: -30.36
[libx264 @ 0x5555fa8f1e80] 8x8 transform intra:0.0% inter:0.0%
[libx264 @ 0x5555fa8f1e80] coded y,uvDC,uvAC intra: 0.0% 0.2% 0.1% inter: 0.0% 0.0% 0.0%
[libx264 @ 0x5555fa8f1e80] i16 v,h,dc,p: 98%  0%  2%  0%
[libx264 @ 0x5555fa8f1e80] i8 v,h,dc,ddl,ddr,vr,hd,vl,hu:  0%  0% 100%  0%  0%  0%  0%  0%  0%
[libx264 @ 0x5555fa8f1e80] i4 v,h,dc,ddl,ddr,vr,hd,vl,hu: 28% 17% 55%  0%  0%  0%  0%  0%  0%
[libx264 @ 0x5555fa8f1e80] i8c dc,h,v,p: 100%  0%  0%  0%
[libx264 @ 0x5555fa8f1e80] Weighted P-Frames: Y:0.0% UV:0.0%
[libx264 @ 0x5555fa8f1e80] kb/s:9.27
[aac @ 0x5555fa8f3140] Qavg: 65536.000
Exiting normally, received signal 2.
